<svg width="30" height="32" viewBox="0 0 30 32" fill="none" xmlns="http://www.w3.org/2000/svg">
<g clip-path="url(#clip0_6_265)" filter="url(#filter0_d_6_265)">
<g clip-path="url(#clip1_6_265)">
<path d="M19.5 18H18.71L18.43 17.73C19.41 16.59 20 15.11 20 13.5C20 9.91 17.09 7 13.5 7C9.91 7 7 9.91 7 13.5C7 17.09 9.91 20 13.5 20C15.11 20 16.59 19.41 17.73 18.43L18 18.71V19.5L23 24.49L24.49 23L19.5 18ZM13.5 18C11.01 18 9 15.99 9 13.5C9 11.01 11.01 9 13.5 9C15.99 9 18 11.01 18 13.5C18 15.99 15.99 18 13.5 18Z" fill="white"/>
</g>
</g>
<defs>
<filter id="filter0_d_6_265" x="0" y="0" width="29.5061" height="32" filterUnits="userSpaceOnUse" color-interpolation-filters="sRGB">
<feFlood flood-opacity="0" result="BackgroundImageFix"/>
<feColorMatrix in="SourceAlpha" type="matrix" values="0 0 0 0 0 0 0 0 0 0 0 0 0 0 0 0 0 0 127 0" result="hardAlpha"/>
<feOffset/>
<feGaussianBlur stdDeviation="2"/>
<feColorMatrix type="matrix" values="0 0 0 0 0 0 0 0 0 0 0 0 0 0 0 0 0 0 0.1 0"/>
<feBlend mode="normal" in2="BackgroundImageFix" result="effect1_dropShadow_6_265"/>
<feBlend mode="normal" in="SourceGraphic" in2="effect1_dropShadow_6_265" result="shape"/>
</filter>
<clipPath id="clip0_6_265">
<rect width="21.5062" height="24" fill="white" transform="translate(4 4)"/>
</clipPath>
<clipPath id="clip1_6_265">
<rect width="24" height="24" fill="white" transform="translate(4 4)"/>
</clipPath>
</defs>
</svg>
