<svg width="1434" height="24" viewBox="0 0 1434 24" fill="none" xmlns="http://www.w3.org/2000/svg">
<path fill-rule="evenodd" clip-rule="evenodd" d="M6.07474 12.1421L13.5756 19.643C14.5522 20.6195 14.5522 22.2028 13.5756 23.1793C12.5991 24.1558 11.0158 24.1558 10.0393 23.1793L0.732416 13.8724C-0.244115 12.8959 -0.244115 11.3126 0.732416 10.3361C0.857739 10.2108 0.993056 10.1015 1.1358 10.0084L10.4118 0.732366C11.3883 -0.244164 12.9716 -0.244165 13.9481 0.732366C14.9247 1.7089 14.9247 3.29217 13.9481 4.2687L6.07474 12.1421Z" fill="#020B20"/>
<path fill-rule="evenodd" clip-rule="evenodd" d="M1427.93 12.1421L1420.42 19.643C1419.45 20.6195 1419.45 22.2028 1420.42 23.1793C1421.4 24.1558 1422.98 24.1558 1423.96 23.1793L1433.27 13.8724C1434.24 12.8959 1434.24 11.3126 1433.27 10.3361C1433.14 10.2108 1433.01 10.1015 1432.86 10.0084L1423.59 0.732366C1422.61 -0.244164 1421.03 -0.244165 1420.05 0.732366C1419.08 1.7089 1419.08 3.29217 1420.05 4.2687L1427.93 12.1421Z" fill="#020B20"/>
</svg>
